<svg width="512" height="512" viewBox="0 0 512 512" xmlns="http://www.w3.org/2000/svg">
  <defs>
    <linearGradient id="bg-gradient" x1="0%" y1="0%" x2="100%" y2="100%">
      <stop offset="0%" style="stop-color:#3b82f6;stop-opacity:1" />
      <stop offset="100%" style="stop-color:#1e40af;stop-opacity:1" />
    </linearGradient>
    <filter id="shadow" x="-20%" y="-20%" width="140%" height="140%">
      <feDropShadow dx="0" dy="4" stdDeviation="8" flood-color="#000000" flood-opacity="0.15"/>
    </filter>
  </defs>
  
  <!-- Background Circle -->
  <circle cx="256" cy="256" r="240" fill="url(#bg-gradient)" filter="url(#shadow)"/>
  
  <!-- Inner highlight -->
  <circle cx="256" cy="200" r="180" fill="none" stroke="rgba(255,255,255,0.1)" stroke-width="2"/>
  
  <!-- Dollar Symbol -->
  <g transform="translate(256, 256)">
    <!-- Vertical line -->
    <rect x="-6" y="-120" width="12" height="240" fill="#ffffff" rx="6"/>
    
    <!-- Top curve -->
    <path d="M -60 -60 Q -60 -90 -20 -90 L 20 -90 Q 60 -90 60 -60 Q 60 -30 20 -30 L -40 -30" 
          fill="none" stroke="#ffffff" stroke-width="24" stroke-linecap="round"/>
    
    <!-- Bottom curve -->
    <path d="M 60 60 Q 60 90 20 90 L -20 90 Q -60 90 -60 60 Q -60 30 -20 30 L 40 30" 
          fill="none" stroke="#ffffff" stroke-width="24" stroke-linecap="round"/>
  </g>
  
  <!-- Subtle accent dots -->
  <circle cx="140" cy="140" r="4" fill="rgba(255,255,255,0.3)"/>
  <circle cx="372" cy="140" r="4" fill="rgba(255,255,255,0.3)"/>
  <circle cx="140" cy="372" r="4" fill="rgba(255,255,255,0.3)"/>
  <circle cx="372" cy="372" r="4" fill="rgba(255,255,255,0.3)"/>
</svg>
