<svg width="512" height="512" viewBox="0 0 512 512" xmlns="http://www.w3.org/2000/svg">
  <defs>
    <linearGradient id="bg-gradient-3" x1="0%" y1="0%" x2="100%" y2="100%">
      <stop offset="0%" style="stop-color:#6366f1;stop-opacity:1" />
      <stop offset="100%" style="stop-color:#3b82f6;stop-opacity:1" />
    </linearGradient>
    <linearGradient id="text-gradient" x1="0%" y1="0%" x2="100%" y2="100%">
      <stop offset="0%" style="stop-color:#ffffff;stop-opacity:1" />
      <stop offset="100%" style="stop-color:#f1f5f9;stop-opacity:1" />
    </linearGradient>
    <filter id="shadow-3" x="-20%" y="-20%" width="140%" height="140%">
      <feDropShadow dx="0" dy="6" stdDeviation="12" flood-color="#000000" flood-opacity="0.2"/>
    </filter>
  </defs>
  
  <!-- Background Modern Hexagon -->
  <path d="M 128 64 L 384 64 L 448 256 L 384 448 L 128 448 L 64 256 Z" 
        fill="url(#bg-gradient-3)" 
        filter="url(#shadow-3)" 
        stroke="#f97316" 
        stroke-width="4"/>
  
  <!-- Inner glow -->
  <path d="M 140 80 L 372 80 L 428 256 L 372 432 L 140 432 L 84 256 Z" 
        fill="none" 
        stroke="rgba(255,255,255,0.1)" 
        stroke-width="2"/>
  
  <!-- First B -->
  <g transform="translate(180, 256)">
    <!-- Vertical line -->
    <rect x="0" y="-80" width="20" height="160" fill="url(#text-gradient)" rx="10"/>
    
    <!-- Top curve -->
    <path d="M 20 -80 L 50 -80 Q 80 -80 80 -50 Q 80 -20 50 -20 L 20 -20" 
          fill="url(#text-gradient)" stroke="none"/>
    <rect x="20" y="-80" width="30" height="20" fill="url(#text-gradient)"/>
    <rect x="20" y="-40" width="30" height="20" fill="url(#text-gradient)"/>
    
    <!-- Bottom curve -->
    <path d="M 20 0 L 55 0 Q 90 0 90 30 Q 90 60 55 60 L 20 60" 
          fill="url(#text-gradient)" stroke="none"/>
    <rect x="20" y="0" width="35" height="20" fill="url(#text-gradient)"/>
    <rect x="20" y="40" width="35" height="20" fill="url(#text-gradient)"/>
  </g>
  
  <!-- Second B -->
  <g transform="translate(290, 256)">
    <!-- Vertical line -->
    <rect x="0" y="-80" width="20" height="160" fill="url(#text-gradient)" rx="10"/>
    
    <!-- Top curve -->
    <path d="M 20 -80 L 50 -80 Q 80 -80 80 -50 Q 80 -20 50 -20 L 20 -20" 
          fill="url(#text-gradient)" stroke="none"/>
    <rect x="20" y="-80" width="30" height="20" fill="url(#text-gradient)"/>
    <rect x="20" y="-40" width="30" height="20" fill="url(#text-gradient)"/>
    
    <!-- Bottom curve -->
    <path d="M 20 0 L 55 0 Q 90 0 90 30 Q 90 60 55 60 L 20 60" 
          fill="url(#text-gradient)" stroke="none"/>
    <rect x="20" y="0" width="35" height="20" fill="url(#text-gradient)"/>
    <rect x="20" y="40" width="35" height="20" fill="url(#text-gradient)"/>
  </g>
  
  <!-- Decorative elements -->
  <!-- Top accent -->
  <circle cx="256" cy="120" r="6" fill="#f97316" opacity="0.8"/>
  <circle cx="240" cy="110" r="3" fill="#f97316" opacity="0.6"/>
  <circle cx="272" cy="110" r="3" fill="#f97316" opacity="0.6"/>
  
  <!-- Bottom accent -->
  <circle cx="256" cy="392" r="6" fill="#f97316" opacity="0.8"/>
  <circle cx="240" cy="402" r="3" fill="#f97316" opacity="0.6"/>
  <circle cx="272" cy="402" r="3" fill="#f97316" opacity="0.6"/>
  
  <!-- Side accents -->
  <circle cx="120" cy="220" r="4" fill="#ffffff" opacity="0.3"/>
  <circle cx="120" cy="292" r="4" fill="#ffffff" opacity="0.3"/>
  <circle cx="392" cy="220" r="4" fill="#ffffff" opacity="0.3"/>
  <circle cx="392" cy="292" r="4" fill="#ffffff" opacity="0.3"/>
</svg>
